<?xml version="1.0" encoding="UTF-8"?>
<svg id="Layer_1" data-name="Layer 1" xmlns="http://www.w3.org/2000/svg" viewBox="0 0 1080 1080">
  <defs>
    <style>
      .cls-1 {
        fill: #fff;
        stroke: #fff;
        stroke-miterlimit: 10;
        stroke-width: 20px;
      }
    </style>
  </defs>
  <g>
    <path class="cls-1" d="M858.02,257.08h-312.15c-51.07,0-92.47,41.4-92.47,92.47v118.48c0,14.48,3.32,28.17,9.26,40.37.39.81.8,1.62,1.22,2.41,15.43,29.53,46.36,49.68,81.99,49.68l80.72.22,124.53.33,171.64,111.84c-17.29-37.4-34.58-74.8-51.87-112.21,7.7-1.27,34.36-6.6,55.68-30.62,22.62-25.47,23.82-54.59,23.9-62.03v-118.48c0-51.07-41.4-92.47-92.47-92.47ZM851.74,450.97c-1.09.22-2.6.35-4.26.35h-291.05c-3.34,0-6.04-.54-6.04-1.21,0-.34.68-.63,1.76-.86,1.1-.22,2.6-.35,4.27-.35h291.05c3.33,0,6.04.54,6.04,1.21,0,.34-.68.63-1.77.86ZM851.74,360.42c-1.09.22-2.6.35-4.26.35h-291.05c-3.34,0-6.04-.54-6.04-1.21,0-.34.68-.63,1.76-.86,1.1-.22,2.6-.35,4.27-.35h291.05c3.33,0,6.04.54,6.04,1.21,0,.34-.68.63-1.77.86Z"/>
    <path class="cls-1" d="M853.52,450.11c0,.34-.68.63-1.77.86-1.09.22-2.6.35-4.26.35h-291.05c-3.34,0-6.04-.54-6.04-1.21,0-.34.68-.63,1.76-.86,1.1-.22,2.6-.35,4.27-.35h291.05c3.33,0,6.04.54,6.04,1.21Z"/>
    <path class="cls-1" d="M853.52,359.56c0,.34-.68.63-1.77.86-1.09.22-2.6.35-4.26.35h-291.05c-3.34,0-6.04-.54-6.04-1.21,0-.34.68-.63,1.76-.86,1.1-.22,2.6-.35,4.27-.35h291.05c3.33,0,6.04.54,6.04,1.21Z"/>
    <g>
      <path class="cls-1" d="M853.52,359.56c0,.34-.68.63-1.77.86-1.09.22-2.6.35-4.26.35h-291.05c-3.34,0-6.04-.54-6.04-1.21,0-.34.68-.63,1.76-.86,1.1-.22,2.6-.35,4.27-.35h291.05c3.33,0,6.04.54,6.04,1.21Z"/>
      <path class="cls-1" d="M853.52,450.11c0,.34-.68.63-1.77.86-1.09.22-2.6.35-4.26.35h-291.05c-3.34,0-6.04-.54-6.04-1.21,0-.34.68-.63,1.76-.86,1.1-.22,2.6-.35,4.27-.35h291.05c3.33,0,6.04.54,6.04,1.21Z"/>
    </g>
  </g>
  <g>
    <path class="cls-1" d="M613.01,451.32h-56.59c-3.34,0-6.04-.54-6.04-1.21,0-.34.68-.63,1.76-.86,1.1-.22,2.6-.35,4.27-.35h55.05c.53.8,1.04,1.61,1.53,2.41Z"/>
    <path class="cls-1" d="M626.59,560.71v57.36c0,51.07-41.4,92.47-92.47,92.47l-205.25.54-171.64,111.84c17.29-37.4,34.58-74.8,51.87-112.21-7.7-1.27-34.35-6.6-55.68-30.6-22.62-25.49-23.82-54.61-23.9-62.04v-118.48c0-51.07,41.4-92.47,92.47-92.47h231.43v60.91c0,14.48,3.32,28.17,9.26,40.37.39.81.8,1.62,1.22,2.41,15.43,29.53,46.36,49.68,81.99,49.68l80.72.22Z"/>
    <g>
      <path class="cls-1" d="M463.89,510.81h-231.35c-1.68,0-3.18-.13-4.27-.35-1.09-.23-1.76-.52-1.76-.86,0-.66,2.69-1.21,6.04-1.21h230.13c.39.81.8,1.62,1.22,2.41Z"/>
      <path class="cls-1" d="M232.53,601.36h291.06c3.33,0,6.04-.54,6.04-1.21h0c0-.67-2.7-1.21-6.04-1.21H232.53c-3.33,0-6.04.54-6.04,1.21h0c0,.67,2.7,1.21,6.04,1.21Z"/>
    </g>
  </g>
</svg>